<?xml version="1.0" encoding="UTF-8" ?>
<!DOCTYPE svg PUBLIC "-//W3C//DTD SVG 1.1//EN" "http://www.w3.org/Graphics/SVG/1.1/DTD/svg11.dtd">
<svg width="500pt" height="500pt" viewBox="0 0 500 500" version="1.1" xmlns="http://www.w3.org/2000/svg">
<g id="#078b4fff">
<path fill="#078b4f" opacity="1.00" d=" M 149.33 168.95 C 149.16 158.61 158.65 149.30 168.94 149.46 C 222.98 149.48 277.02 149.48 331.05 149.46 C 341.36 149.28 350.87 158.59 350.69 168.94 C 350.71 179.90 350.63 190.86 350.73 201.83 C 345.53 196.50 340.23 191.28 335.00 185.99 C 334.10 185.42 333.42 183.86 332.20 184.24 C 329.39 186.38 327.13 189.15 324.58 191.58 C 310.12 205.97 295.81 220.52 281.25 234.81 C 274.09 227.69 267.05 220.44 259.81 213.41 C 256.25 216.30 253.22 219.76 249.95 222.95 C 236.89 235.96 223.92 249.06 210.82 262.02 C 203.52 255.73 197.43 248.14 190.06 241.94 C 179.47 252.39 169.02 262.98 158.47 273.47 C 155.46 276.40 152.71 279.60 149.37 282.18 C 149.28 244.44 149.37 206.69 149.33 168.95 M 177.43 173.13 C 177.53 186.38 177.52 199.64 177.43 212.89 C 179.27 212.95 181.11 212.99 182.96 213.05 C 183.07 207.37 182.94 201.70 183.02 196.03 C 187.98 196.63 194.75 193.95 198.11 198.89 C 200.30 203.18 198.25 208.35 200.13 212.80 C 202.29 212.95 204.45 213.02 206.62 213.09 C 203.69 208.82 205.34 203.55 204.13 198.85 C 203.57 196.32 201.37 194.80 199.36 193.45 C 201.43 191.57 203.96 189.71 204.51 186.79 C 205.08 183.36 204.76 179.41 202.22 176.79 C 199.70 173.94 195.73 173.00 192.07 172.99 C 187.19 172.97 182.30 172.91 177.43 173.13 M 212.85 183.95 C 212.72 197.30 212.76 210.65 212.83 223.99 C 214.65 223.99 216.48 224.00 218.31 224.02 C 218.43 219.47 218.47 214.91 218.21 210.37 C 222.38 213.96 228.93 214.93 233.46 211.41 C 238.31 207.56 238.75 200.61 237.84 194.93 C 237.22 189.80 233.60 184.39 228.05 184.02 C 224.40 183.39 220.99 185.03 218.13 187.13 C 217.71 186.12 217.29 185.10 216.87 184.09 C 215.53 184.04 214.19 183.99 212.85 183.95 Z" />
<path fill="#078b4f" opacity="1.00" d=" M 183.02 177.02 C 187.26 177.06 191.70 176.49 195.74 178.10 C 200.95 180.25 200.38 189.58 194.73 190.78 C 190.88 191.62 186.92 191.49 183.02 191.36 C 182.97 186.58 182.97 181.80 183.02 177.02 Z" />
<path fill="#078b4f" opacity="1.00" d=" M 224.29 188.16 C 226.27 187.94 228.37 188.83 229.83 190.17 C 232.90 193.76 233.01 198.91 232.26 203.35 C 231.48 207.35 227.12 210.34 223.13 209.11 C 220.76 208.55 218.04 206.73 218.39 203.96 C 218.41 199.85 218.09 195.71 218.62 191.63 C 219.85 189.65 222.01 188.48 224.29 188.16 Z" />
</g>
<g id="#ffffffff">
<path fill="#ffffff" opacity="1.00" d=" M 177.43 173.13 C 182.30 172.91 187.19 172.97 192.07 172.99 C 195.73 173.00 199.70 173.94 202.22 176.79 C 204.76 179.41 205.08 183.36 204.51 186.79 C 203.96 189.71 201.43 191.57 199.36 193.45 C 201.37 194.80 203.57 196.32 204.13 198.85 C 205.34 203.55 203.69 208.82 206.62 213.09 C 204.45 213.02 202.29 212.95 200.13 212.80 C 198.25 208.35 200.30 203.18 198.11 198.89 C 194.75 193.95 187.98 196.63 183.02 196.03 C 182.94 201.70 183.07 207.37 182.96 213.05 C 181.11 212.99 179.27 212.95 177.43 212.89 C 177.52 199.64 177.53 186.38 177.43 173.13 M 183.02 177.02 C 182.97 181.80 182.97 186.58 183.02 191.36 C 186.92 191.49 190.88 191.62 194.73 190.78 C 200.38 189.58 200.95 180.25 195.74 178.10 C 191.70 176.49 187.26 177.06 183.02 177.02 Z" />
<path fill="#ffffff" opacity="1.00" d=" M 212.85 183.95 C 214.19 183.99 215.53 184.04 216.87 184.09 C 217.29 185.10 217.71 186.12 218.13 187.13 C 220.99 185.03 224.40 183.39 228.05 184.02 C 233.60 184.39 237.22 189.80 237.84 194.93 C 238.75 200.61 238.31 207.56 233.46 211.41 C 228.93 214.93 222.38 213.96 218.21 210.37 C 218.47 214.91 218.43 219.47 218.31 224.02 C 216.48 224.00 214.65 223.99 212.83 223.99 C 212.76 210.65 212.72 197.30 212.85 183.95 M 224.29 188.16 C 222.01 188.48 219.85 189.65 218.62 191.63 C 218.09 195.71 218.41 199.85 218.39 203.96 C 218.04 206.73 220.76 208.55 223.13 209.11 C 227.12 210.34 231.48 207.35 232.26 203.35 C 233.01 198.91 232.90 193.76 229.83 190.17 C 228.37 188.83 226.27 187.94 224.29 188.16 Z" />
</g>
<g id="#09b567ff">
<path fill="#09b567" opacity="1.00" d=" M 322.18 212.18 C 325.76 208.80 328.90 204.94 332.82 201.94 C 338.76 207.93 344.85 213.79 350.67 219.90 C 350.71 255.27 350.66 290.63 350.69 326.00 C 350.63 329.83 351.09 333.82 349.63 337.48 C 346.98 345.13 339.31 351.12 331.06 350.78 C 277.02 350.76 222.98 350.76 168.94 350.78 C 158.42 351.20 149.04 341.40 149.33 331.00 C 149.38 321.31 149.29 311.63 149.37 301.94 C 149.17 300.41 150.71 299.53 151.52 298.48 C 164.43 285.70 177.18 272.76 190.10 259.99 C 197.06 266.47 203.57 273.42 210.36 280.07 C 212.80 278.69 214.58 276.49 216.54 274.55 C 229.68 261.35 242.90 248.23 256.02 235.02 C 257.23 233.82 258.52 232.71 259.82 231.61 C 267.05 238.60 273.97 245.89 281.20 252.86 C 295.15 239.61 308.47 225.68 322.18 212.18 Z" />
</g>
</svg>
