<?xml version="1.0" encoding="UTF-8" ?>
<!DOCTYPE svg PUBLIC "-//W3C//DTD SVG 1.1//EN" "http://www.w3.org/Graphics/SVG/1.1/DTD/svg11.dtd">
<svg width="500pt" height="500pt" viewBox="0 0 500 500" version="1.1" xmlns="http://www.w3.org/2000/svg">
<g id="#2b6ed9ff">
<path fill="#2b6ed9" opacity="1.00" d=" M 80.09 185.33 C 88.66 184.88 97.27 185.24 105.85 185.15 C 107.93 188.68 110.01 192.21 112.02 195.78 C 107.89 195.80 103.75 195.77 99.62 195.81 C 101.42 199.61 103.75 203.11 105.88 206.73 C 101.66 206.58 97.38 206.21 93.24 207.28 C 88.85 199.97 84.63 192.55 80.09 185.33 Z" />
</g>
<g id="#2a9ae2ff">
<path fill="#2a9ae2" opacity="1.00" d=" M 105.85 185.15 C 122.64 185.18 139.44 185.05 156.23 185.15 C 154.43 188.84 152.38 192.40 150.06 195.79 C 137.38 195.81 124.70 195.76 112.02 195.78 C 110.01 192.21 107.93 188.68 105.85 185.15 Z" />
<path fill="#2a9ae2" opacity="1.00" d=" M 188.05 187.99 C 189.79 185.35 193.06 184.48 196.06 185.03 C 202.81 187.14 208.06 193.82 207.80 201.02 C 208.14 208.75 203.23 215.73 196.95 219.79 C 194.78 221.37 191.85 222.00 190.43 224.46 C 193.72 224.30 196.92 223.36 200.22 223.22 C 196.47 224.21 192.71 225.23 188.88 225.90 C 189.39 224.49 189.96 223.10 190.58 221.73 C 196.80 218.73 202.61 213.76 204.59 206.92 C 206.41 201.27 205.29 194.40 200.90 190.21 C 198.66 188.33 195.95 186.24 192.83 186.81 C 189.68 187.34 188.51 190.61 186.90 192.93 C 184.20 197.62 181.01 202.03 178.73 206.96 C 178.63 205.48 179.53 204.22 180.09 202.93 C 182.63 197.89 185.05 192.77 188.05 187.99 Z" />
<path fill="#2a9ae2" opacity="1.00" d=" M 218.13 189.18 C 219.94 185.85 224.53 184.00 227.90 186.17 C 233.53 188.89 237.96 194.59 237.95 201.02 C 238.37 207.68 234.93 213.97 229.97 218.22 C 230.50 218.68 231.55 219.62 232.08 220.09 C 231.01 219.49 229.97 218.85 228.93 218.22 C 232.93 214.17 236.08 208.81 235.87 202.95 C 236.15 198.04 234.03 193.00 229.91 190.20 C 227.64 188.49 224.27 186.52 221.56 188.43 C 217.59 191.70 216.39 197.10 212.91 200.79 C 214.32 196.79 216.14 192.92 218.13 189.18 Z" />
<path fill="#2a9ae2" opacity="1.00" d=" M 190.18 191.22 C 191.10 189.43 192.91 187.70 195.11 188.54 C 200.59 190.39 204.35 196.19 203.77 201.97 C 203.77 209.66 197.89 216.02 191.26 219.15 C 187.31 220.58 187.03 225.38 185.25 228.63 C 191.87 227.95 198.31 226.18 204.75 224.60 C 208.95 212.39 214.65 200.70 221.68 189.87 C 223.01 187.38 226.04 188.65 227.80 189.88 C 231.22 191.67 233.34 195.23 233.94 198.97 C 235.00 205.39 231.96 211.86 227.02 215.92 C 224.00 219.01 218.56 219.35 217.41 224.13 C 220.30 222.14 222.96 218.22 226.95 219.28 C 230.46 220.77 233.26 223.51 236.05 226.04 C 238.16 227.82 239.47 230.90 238.31 233.57 C 235.64 239.72 232.32 245.81 227.12 250.19 C 223.87 253.14 219.59 255.33 215.09 254.88 C 213.13 253.07 212.43 250.20 211.29 247.82 C 220.06 243.69 225.58 234.48 227.67 225.28 C 222.58 225.24 218.33 228.75 214.62 231.83 C 211.31 238.87 209.81 246.68 209.35 254.41 C 206.36 253.05 201.70 253.43 200.28 249.94 C 199.74 242.66 201.61 235.45 203.45 228.46 C 198.38 230.30 193.18 231.76 187.99 233.23 C 192.35 241.61 193.16 251.42 191.48 260.62 C 190.47 265.41 187.57 270.17 182.84 271.99 C 179.03 273.14 174.88 272.70 171.15 271.48 C 169.84 271.15 168.81 269.98 168.56 268.67 C 167.35 262.49 168.03 256.18 168.53 249.97 C 170.85 228.99 179.26 209.12 190.18 191.22 M 191.26 215.83 C 195.96 213.16 199.40 208.30 199.09 202.73 C 195.48 206.35 193.58 211.33 191.26 215.83 M 221.94 215.94 C 226.29 213.04 230.14 208.17 229.25 202.64 C 226.32 206.75 223.78 211.23 221.94 215.94 M 182.69 234.98 C 179.52 245.46 177.05 256.41 177.66 267.42 C 182.39 267.29 183.96 261.63 185.27 257.93 C 186.45 250.37 187.13 241.65 182.69 234.98 Z" />
<path fill="#2a9ae2" opacity="1.00" d=" M 192.44 263.13 C 195.35 253.99 194.20 244.19 192.41 234.95 C 193.37 237.96 194.52 240.93 194.89 244.09 C 196.36 252.51 196.74 262.23 191.63 269.58 C 186.19 276.53 175.79 277.71 168.19 274.01 C 166.22 272.60 164.92 270.33 164.76 267.91 C 164.44 263.59 164.37 259.19 165.40 254.96 C 165.27 259.73 165.35 264.65 166.73 269.26 C 168.60 273.53 174.04 273.44 177.98 273.79 C 184.59 274.25 190.59 269.30 192.44 263.13 Z" />
<path fill="#2a9ae2" opacity="1.00" d=" M 214.01 256.70 C 221.16 257.46 227.28 252.97 232.69 248.93 C 229.85 252.94 226.17 256.49 221.60 258.43 C 218.27 258.66 214.53 259.21 211.66 257.10 C 210.60 257.29 209.56 257.49 208.51 257.69 C 208.50 257.51 208.47 257.16 208.46 256.98 C 209.79 256.81 210.78 256.11 211.42 254.90 C 212.28 255.49 213.15 256.09 214.01 256.70 Z" />
</g>
<g id="#45c9f9ff">
<path fill="#45c9f9" opacity="1.00" d=" M 156.23 185.15 C 164.75 185.05 173.28 185.22 181.81 185.05 C 178.13 192.37 173.49 199.18 169.47 206.32 C 165.12 206.38 160.76 206.41 156.41 206.49 C 158.54 202.92 160.72 199.37 162.80 195.78 C 158.56 195.76 154.31 195.77 150.06 195.79 C 152.38 192.40 154.43 188.84 156.23 185.15 Z" />
</g>
<g id="#3e57b0ff">
<path fill="#3e57b0" opacity="1.00" d=" M 379.28 201.24 C 380.43 199.66 382.43 200.19 384.09 200.27 C 382.13 201.11 380.07 202.14 379.31 204.28 C 377.44 208.85 375.23 213.57 375.68 218.65 C 374.06 217.79 372.21 216.34 370.33 217.39 C 367.42 219.30 365.39 222.23 363.03 224.74 C 365.27 220.49 367.72 214.71 373.40 214.76 C 374.37 209.94 376.07 205.04 379.28 201.24 Z" />
<path fill="#3e57b0" opacity="1.00" d=" M 380.56 205.87 C 381.35 203.72 383.57 201.89 385.98 202.64 C 389.48 203.55 393.16 205.45 394.55 209.03 C 391.50 214.00 386.70 218.17 380.92 219.49 C 379.70 218.74 377.63 218.69 377.43 216.94 C 377.15 213.03 379.01 209.35 380.56 205.87 Z" />
<path fill="#3e57b0" opacity="1.00" d=" M 118.14 206.49 C 130.89 206.37 143.65 206.53 156.41 206.49 C 160.76 206.41 165.12 206.38 169.47 206.32 C 165.02 213.53 160.82 220.88 156.45 228.14 C 152.26 227.90 148.06 227.76 143.86 227.76 C 145.81 224.27 147.86 220.83 149.97 217.43 C 141.57 217.32 133.17 217.38 124.77 217.40 C 122.48 213.81 120.36 210.12 118.14 206.49 Z" />
<path fill="#3e57b0" opacity="1.00" d=" M 288.50 221.75 C 289.87 218.20 292.00 214.17 296.08 213.34 C 300.81 212.94 304.26 216.79 307.58 219.55 C 311.44 216.80 315.82 213.01 320.92 214.54 C 324.33 216.50 327.11 219.35 329.63 222.33 C 329.47 223.90 329.31 225.47 329.02 227.03 C 328.58 225.15 329.43 222.76 327.48 221.55 C 324.56 219.42 321.88 215.85 317.94 215.99 C 313.88 217.05 310.78 220.13 307.52 222.59 C 303.71 219.87 300.50 214.31 295.24 215.22 C 290.18 217.81 289.29 224.12 285.26 227.75 C 285.64 226.86 286.04 225.98 286.44 225.11 C 284.44 220.86 280.09 217.81 275.80 216.19 C 269.95 218.42 267.79 225.34 262.94 229.00 C 263.80 227.20 264.75 225.44 265.67 223.67 C 262.18 220.19 258.25 215.81 253.14 215.26 C 247.63 217.44 246.02 224.05 242.10 228.06 C 243.76 223.65 245.71 219.27 248.56 215.49 C 251.24 212.62 255.90 212.67 258.83 215.14 C 261.51 217.52 264.60 219.80 265.95 223.25 C 269.00 219.74 271.19 213.13 276.97 214.25 C 280.97 215.63 284.11 219.08 286.46 222.54 C 286.97 222.34 287.99 221.95 288.50 221.75 Z" />
<path fill="#3e57b0" opacity="1.00" d=" M 378.47 220.84 C 385.12 221.73 390.54 217.17 395.15 213.05 C 393.22 218.00 388.40 221.14 383.64 223.01 L 383.38 224.88 C 384.03 224.73 385.33 224.45 385.97 224.31 C 384.58 225.77 383.23 227.26 381.81 228.69 C 382.07 225.51 380.90 222.89 378.47 220.84 Z" />
<path fill="#3e57b0" opacity="1.00" d=" M 340.93 216.60 C 343.32 215.21 346.07 213.55 348.93 214.47 C 353.04 215.28 355.74 218.74 358.82 221.26 C 361.28 223.11 361.17 226.60 359.98 229.15 C 358.53 232.18 356.33 234.80 353.92 237.13 C 355.53 233.12 359.08 229.55 358.67 224.98 C 356.59 221.97 353.57 219.65 350.92 217.13 C 348.17 214.45 344.13 215.52 340.93 216.60 Z" />
<path fill="#3e57b0" opacity="1.00" d=" M 250.46 219.46 C 251.24 218.09 252.64 217.31 253.96 216.54 C 257.01 218.54 260.00 220.71 262.39 223.50 C 256.68 230.26 251.74 238.25 250.29 247.10 C 259.59 240.39 265.46 230.23 272.15 221.15 C 273.37 219.86 274.57 217.36 276.74 218.31 C 279.57 219.91 282.09 222.15 283.85 224.90 C 279.68 230.44 276.07 236.43 273.34 242.80 C 277.60 239.63 281.42 235.91 285.34 232.33 C 290.39 227.92 291.00 219.95 296.97 216.39 C 300.20 218.15 302.89 220.67 305.54 223.19 C 302.94 226.18 300.67 229.46 298.88 233.00 C 304.11 227.83 309.24 222.37 315.74 218.77 C 316.94 218.18 318.55 217.14 319.81 218.17 C 322.50 219.80 324.73 222.05 327.08 224.12 C 323.29 230.19 318.93 236.00 316.44 242.79 C 322.64 237.60 328.64 232.14 334.52 226.59 C 338.28 222.82 342.27 217.43 348.16 217.81 C 351.24 219.61 353.75 222.25 356.32 224.70 C 357.99 226.68 356.04 229.16 355.08 231.01 C 351.32 237.85 344.39 242.85 336.55 243.66 C 336.37 245.59 336.02 247.91 338.01 249.07 C 341.04 250.92 344.93 249.40 347.45 247.30 C 354.55 241.74 359.97 234.36 364.84 226.84 C 366.97 223.80 368.91 220.52 371.95 218.27 C 375.06 220.04 377.66 222.49 380.14 225.03 C 376.55 230.89 372.39 236.49 369.90 242.95 C 372.56 241.80 374.37 239.43 376.59 237.65 C 380.85 234.16 384.82 230.34 388.78 226.51 C 389.77 226.57 391.76 226.70 392.76 226.77 C 386.55 233.79 380.68 241.12 374.29 247.98 C 374.88 248.52 375.47 249.06 376.07 249.61 C 376.82 248.47 377.72 247.47 378.76 246.59 C 376.78 250.51 374.05 253.98 371.19 257.29 C 375.28 258.06 379.76 260.50 380.75 264.87 C 381.50 268.34 379.49 271.51 377.16 273.87 C 378.66 270.77 380.44 266.97 378.26 263.74 C 375.74 259.80 370.59 259.98 366.85 258.12 C 369.55 255.86 372.19 253.52 374.63 250.98 C 374.08 250.46 373.53 249.94 372.99 249.42 C 371.21 251.77 369.42 254.45 366.48 255.42 C 365.88 256.99 365.29 258.57 364.69 260.15 C 368.82 260.63 373.81 260.84 376.58 264.40 C 378.62 267.33 376.10 270.69 373.85 272.60 C 370.29 269.50 365.55 268.43 360.95 268.16 C 357.02 275.35 350.48 281.90 342.07 283.19 C 338.93 283.54 335.57 283.59 332.65 282.22 C 329.67 280.64 327.27 277.50 327.38 274.01 C 327.32 269.12 331.23 265.24 335.25 263.04 C 340.72 260.07 347.07 260.29 353.11 260.22 C 355.16 255.08 356.57 249.73 357.64 244.31 C 356.56 245.59 355.48 246.86 354.41 248.14 C 353.98 251.70 353.07 255.19 351.69 258.50 C 343.10 258.82 333.38 260.39 327.66 267.51 C 324.16 272.07 324.92 278.19 327.84 282.81 C 325.30 279.80 323.16 276.04 323.96 271.95 C 324.90 265.55 330.40 261.13 336.10 258.88 C 331.47 257.38 326.82 254.87 325.03 250.05 C 327.30 252.54 329.77 255.06 333.11 256.04 C 339.06 258.48 345.58 256.54 351.17 254.05 C 350.66 254.85 349.63 256.45 349.12 257.25 C 351.96 256.08 351.74 252.23 352.77 249.82 C 348.17 253.52 341.88 257.49 335.85 254.92 C 333.13 254.04 330.20 252.80 328.81 250.12 C 326.95 247.11 327.27 243.46 327.63 240.11 C 323.34 244.70 319.68 249.89 315.11 254.20 C 311.44 253.77 306.56 253.11 304.55 249.62 C 303.18 241.01 307.15 232.75 312.11 225.97 C 302.40 232.74 296.81 243.72 292.02 254.23 C 289.06 252.99 284.99 253.14 283.26 250.00 C 282.92 246.66 283.50 243.32 283.83 240.01 C 280.50 244.53 276.71 248.68 273.11 252.99 C 271.63 255.27 268.77 253.74 266.76 253.18 C 264.83 252.33 262.25 251.85 261.44 249.64 C 260.55 247.21 261.36 244.61 261.78 242.18 C 257.56 246.54 253.24 250.92 248.19 254.34 C 245.38 252.74 240.74 252.91 239.84 249.13 C 239.81 238.35 244.77 228.34 250.46 219.46 M 338.07 241.59 C 343.83 239.11 348.15 233.91 350.70 228.29 C 345.91 232.08 341.45 236.49 338.07 241.59 M 334.76 270.84 C 331.84 272.90 331.88 278.39 335.93 278.99 C 342.83 279.78 347.33 273.05 349.97 267.62 C 344.82 267.71 339.17 267.86 334.76 270.84 Z" />
<path fill="#3e57b0" opacity="1.00" d=" M 292.68 255.67 C 295.53 252.02 296.96 247.42 299.96 243.84 C 298.90 248.18 297.09 252.32 295.33 256.40 C 292.79 259.16 289.01 256.88 286.07 256.18 C 282.72 255.54 280.35 252.75 279.56 249.55 C 279.70 249.49 280.00 249.38 280.15 249.33 C 281.27 251.69 283.23 253.98 286.06 254.08 C 288.39 254.04 290.40 256.29 292.68 255.67 Z" />
<path fill="#3e57b0" opacity="1.00" d=" M 301.03 246.79 C 302.04 249.02 302.64 251.70 304.87 253.09 C 308.93 255.11 313.40 257.19 318.02 255.68 C 317.40 256.19 316.17 257.22 315.55 257.73 C 311.08 258.15 306.43 256.95 302.92 254.11 C 300.82 252.29 300.66 249.35 301.03 246.79 Z" />
<path fill="#3e57b0" opacity="1.00" d=" M 248.91 255.79 C 252.71 253.59 255.48 250.06 259.04 247.54 C 259.44 254.00 266.85 256.59 272.32 256.87 C 273.16 256.28 274.00 255.71 274.85 255.16 C 273.73 256.17 272.67 257.44 271.11 257.77 C 266.00 258.03 260.77 255.76 257.69 251.62 C 254.62 253.82 252.14 258.00 247.92 257.67 C 243.15 256.58 237.22 254.63 236.52 248.94 C 238.01 250.97 239.21 253.72 242.03 254.04 C 244.37 254.40 246.50 256.25 248.91 255.79 Z" />
<path fill="#3e57b0" opacity="1.00" d=" M 361.98 270.85 C 364.71 270.36 368.06 271.76 370.13 273.67 C 367.78 273.08 365.42 272.47 363.00 272.26 C 359.77 278.35 354.49 283.61 347.80 285.70 C 346.17 286.24 344.45 285.76 342.81 285.57 C 351.09 283.94 357.22 277.41 361.98 270.85 Z" />
</g>
<g id="#7081d4ff">
<path fill="#7081d4" opacity="1.00" d=" M 93.24 207.28 C 97.38 206.21 101.66 206.58 105.88 206.73 C 110.02 213.77 114.19 220.79 118.36 227.82 C 114.27 227.85 110.17 227.99 106.13 228.61 L 105.93 228.63 C 101.66 221.54 97.47 214.40 93.24 207.28 Z" />
</g>
<g id="#927dd8ff">
<path fill="#927dd8" opacity="1.00" d=" M 106.13 228.61 C 110.17 227.99 114.27 227.85 118.36 227.82 C 120.56 231.43 122.69 235.08 124.85 238.72 C 122.78 242.36 120.62 245.94 118.20 249.34 C 114.26 242.38 109.81 235.71 106.13 228.61 Z" />
</g>
<g id="#7164cdff">
<path fill="#7164cd" opacity="1.00" d=" M 131.05 227.78 C 135.32 227.76 139.59 227.78 143.86 227.76 C 148.06 227.76 152.26 227.90 156.45 228.14 C 148.01 242.43 139.52 256.70 131.03 270.96 C 126.79 263.73 122.54 256.51 118.20 249.34 C 120.62 245.94 122.78 242.36 124.85 238.72 C 126.92 242.17 128.99 245.63 131.04 249.09 C 132.99 245.64 135.42 242.44 136.95 238.77 C 135.73 234.77 132.64 231.64 131.05 227.78 Z" />
</g>
</svg>
