<?xml version="1.0" encoding="UTF-8" standalone="no"?>
<svg
   xmlns:dc="http://purl.org/dc/elements/1.1/"
   xmlns:cc="http://creativecommons.org/ns#"
   xmlns:rdf="http://www.w3.org/1999/02/22-rdf-syntax-ns#"
   xmlns:svg="http://www.w3.org/2000/svg"
   xmlns="http://www.w3.org/2000/svg"
   xmlns:sodipodi="http://sodipodi.sourceforge.net/DTD/sodipodi-0.dtd"
   xmlns:inkscape="http://www.inkscape.org/namespaces/inkscape"
   width="500pt"
   height="500pt"
   viewBox="0 0 500 500"
   version="1.1"
   id="svg2"
   inkscape:version="0.91 r13725"
   sodipodi:docname="7.svg">
  <metadata
     id="metadata94">
    <rdf:RDF>
      <cc:Work
         rdf:about="">
        <dc:format>image/svg+xml</dc:format>
        <dc:type
           rdf:resource="http://purl.org/dc/dcmitype/StillImage" />
      </cc:Work>
    </rdf:RDF>
  </metadata>
  <defs
     id="defs92" />
  <sodipodi:namedview
     pagecolor="#ffffff"
     bordercolor="#666666"
     borderopacity="1"
     objecttolerance="10"
     gridtolerance="10"
     guidetolerance="10"
     inkscape:pageopacity="0"
     inkscape:pageshadow="2"
     inkscape:window-width="1920"
     inkscape:window-height="1021"
     id="namedview90"
     showgrid="false"
     inkscape:zoom="0.3776"
     inkscape:cx="312.5"
     inkscape:cy="312.5"
     inkscape:window-x="0"
     inkscape:window-y="32"
     inkscape:window-maximized="1"
     inkscape:current-layer="svg2" />
  <g
     id="#8f1d20c7"
     transform="matrix(2.3145672,0,0,2.3145672,-329.30565,-310.26938)">
    <path
       d="m 226.96,153.98 c 10.5,-6.51 24.02,-7.68 35.58,-3.42 13.2,4.78 23.35,16.91 25.94,30.68 -13.25,-3.04 -27.97,0.38 -37.9,9.84 -11.22,-10.47 -28.23,-13.61 -42.6,-8.45 1.53,-11.77 8.88,-22.51 18.98,-28.65 z"
       id="path5"
       inkscape:connector-curvature="0"
       style="opacity:0.77999998;fill:#8f1d20" />
  </g>
  <g
     id="#a3a23af3"
     transform="matrix(2.3145672,0,0,2.3145672,-329.30565,-310.26938)">
    <path
       d="m 207.98,182.63 c 14.37,-5.16 31.38,-2.02 42.6,8.45 l -0.3,0.28 c -2.91,2.79 -5.3,6.05 -7.49,9.41 -4.44,-2.54 -9.77,-3.95 -14.84,-2.67 -6.48,1.32 -11.8,6.25 -14.31,12.27 -5.28,-8.16 -6.74,-18.05 -6.17,-27.6 l 0.51,-0.14 z"
       id="path8"
       inkscape:connector-curvature="0"
       style="opacity:0.95;fill:#a3a23a" />
  </g>
  <g
     id="#2589baf3"
     transform="matrix(2.3145672,0,0,2.3145672,-329.30565,-310.26938)">
    <path
       d="m 250.58,191.08 c 9.93,-9.46 24.65,-12.88 37.9,-9.84 l 0.32,0.06 0.01,0.26 c 0.64,8.04 0.13,16.35 -3.21,23.81 -2.76,-3.08 -6.34,-5.59 -10.5,-6.26 -5.56,-1.19 -11.29,1.19 -15.3,5.01 -2.23,-4.87 -5.33,-9.37 -9.52,-12.76 l 0.3,-0.28 z"
       id="path11"
       inkscape:connector-curvature="0"
       style="opacity:0.95;fill:#2589ba" />
  </g>
  <g
     id="#006990c7"
     transform="matrix(2.3145672,0,0,2.3145672,-329.30565,-310.26938)">
    <path
       d="m 288.81,181.56 c 14.73,3.37 26.8,16.26 29.57,31.06 -6.45,-0.31 -13.31,-0.69 -19.2,2.49 -6.64,3.04 -11.18,9.09 -14.3,15.5 -0.83,-0.52 -1.66,-1.03 -2.5,-1.53 7.14,-5.46 8.56,-16.54 3.22,-23.71 3.34,-7.46 3.85,-15.77 3.21,-23.81 z"
       id="path14"
       inkscape:connector-curvature="0"
       style="opacity:0.77999998;fill:#006990" />
  </g>
  <g
     id="#657d28c7"
     transform="matrix(2.3145672,0,0,2.3145672,-329.30565,-310.26938)">
    <path
       d="m 182.62,212.72 c 2.37,-13.39 12.5,-24.68 24.85,-29.95 -0.57,9.55 0.89,19.44 6.17,27.6 -1.28,4.13 -1.44,8.56 -0.18,12.72 l -0.36,1.44 c -4.07,-4.65 -8.74,-9.08 -14.82,-10.85 -5.03,-1.78 -10.44,-1.28 -15.66,-0.96 z"
       id="path17"
       inkscape:connector-curvature="0"
       style="opacity:0.77999998;fill:#657d28" />
    <path
       d="m 215,227 c 1.6,2.1 3.4,4.02 5.21,5.93 -0.7,0.42 -2.11,1.27 -2.82,1.69 -1.41,-2.32 -1.86,-5 -2.39,-7.62 z"
       id="path19"
       inkscape:connector-curvature="0"
       style="opacity:0.77999998;fill:#657d28" />
  </g>
  <g
     id="#24acc6fd"
     transform="matrix(2.3145672,0,0,2.3145672,-329.30565,-310.26938)">
    <path
       d="m 242.79,200.77 c 2.19,-3.36 4.58,-6.62 7.49,-9.41 4.19,3.39 7.29,7.89 9.52,12.76 -5.61,6.14 -5.87,16.36 -0.29,22.6 -3.19,1.93 -7.59,3.83 -10.59,0.52 5.26,-8.79 2.39,-20.86 -6.13,-26.47 z"
       id="path22"
       inkscape:connector-curvature="0"
       style="opacity:1;fill:#24acc6" />
  </g>
  <g
     id="#fefefeff"
     transform="matrix(2.3145672,0,0,2.3145672,-329.30565,-310.26938)">
    <path
       d="m 213.64,210.37 c 2.51,-6.02 7.83,-10.95 14.31,-12.27 5.07,-1.28 10.4,0.13 14.84,2.67 8.52,5.61 11.39,17.68 6.13,26.47 -1.43,2.05 -3.17,3.85 -4.93,5.62 2.76,1.62 5.36,3.5 7.78,5.6 2.62,-3.91 6.11,-7.13 10.2,-9.46 -0.83,-0.75 -1.65,-1.51 -2.46,-2.28 -5.58,-6.24 -5.32,-16.46 0.29,-22.6 4.01,-3.82 9.74,-6.2 15.3,-5.01 4.16,0.67 7.74,3.18 10.5,6.26 5.34,7.17 3.92,18.25 -3.22,23.71 0.84,0.5 1.67,1.01 2.5,1.53 4.47,2.87 7.92,7.35 9.71,12.32 0.9,2.19 -2.11,2.54 -3.5,3.15 -14.59,3.07 -29.1,9.65 -38.82,21.28 -0.6,0.73 -1.31,1.34 -2.12,1.83 -9.96,-13.72 -26.65,-20.27 -42.68,-23.78 2.47,-4.26 5.59,-8.29 9.92,-10.79 0.71,-0.42 2.12,-1.27 2.82,-1.69 -1.81,-1.91 -3.61,-3.83 -5.21,-5.93 -0.5,-1.31 -1.04,-2.6 -1.54,-3.91 -1.26,-4.16 -1.1,-8.59 0.18,-12.72 z"
       id="path25"
       inkscape:connector-curvature="0"
       style="opacity:1;fill:#fefefe" />
    <path
       d="m 191.28,222.18 c 6.44,-2.97 14.64,1.39 16.11,8.23 1.18,4.47 -1.05,8.78 -3.92,12.06 1.03,0.96 2.07,1.92 3.1,2.9 -6.11,-0.87 -12.28,-1.53 -18.45,-1.74 -1.14,-3.59 -3.93,-6.45 -4.45,-10.28 0.64,-4.63 3.05,-9.37 7.61,-11.17 z"
       id="path27"
       inkscape:connector-curvature="0"
       style="opacity:1;fill:#fefefe" />
    <path
       d="m 293.45,235.03 c 0.8,-6.84 8.43,-11.97 15.03,-9.68 4.3,1.23 7.28,5.02 8.61,9.16 -0.25,3.1 -0.7,6.21 -1.97,9.08 -2.99,0.1 -6.02,-0.07 -8.98,0.49 -2.41,0.24 -4.81,0.49 -7.23,0.57 -0.71,-0.01 -2.13,-0.04 -2.84,-0.05 -1.48,-2.96 -3.23,-6.13 -2.62,-9.57 z"
       id="path29"
       inkscape:connector-curvature="0"
       style="opacity:1;fill:#fefefe" />
  </g>
  <g
     id="#a4b654f3"
     transform="matrix(2.3145672,0,0,2.3145672,-329.30565,-310.26938)">
    <path
       d="m 181.94,212.76 0.68,-0.04 c 5.22,-0.32 10.63,-0.82 15.66,0.96 6.08,1.77 10.75,6.2 14.82,10.85 l 0.36,-1.44 c 0.5,1.31 1.04,2.6 1.54,3.91 0.53,2.62 0.98,5.3 2.39,7.62 -4.33,2.5 -7.45,6.53 -9.92,10.79 l -0.31,0.51 -0.59,-0.55 c -1.03,-0.98 -2.07,-1.94 -3.1,-2.9 2.87,-3.28 5.1,-7.59 3.92,-12.06 -1.47,-6.84 -9.67,-11.2 -16.11,-8.23 -4.56,1.8 -6.97,6.54 -7.61,11.17 -2,-6.47 -2.16,-13.29 -1.75,-20 l 0.02,-0.59 z"
       id="path32"
       inkscape:connector-curvature="0"
       style="opacity:0.95;fill:#a4b654" />
  </g>
  <g
     id="#2697baf3"
     transform="matrix(2.3145672,0,0,2.3145672,-329.30565,-310.26938)">
    <path
       d="m 299.18,215.11 c 5.89,-3.18 12.75,-2.8 19.2,-2.49 l 0.2,0.01 0.07,0.58 c 1.31,7.12 0.41,14.39 -1.56,21.3 -1.33,-4.14 -4.31,-7.93 -8.61,-9.16 -6.6,-2.29 -14.23,2.84 -15.03,9.68 -0.61,3.44 1.14,6.61 2.62,9.57 0.71,0.01 2.13,0.04 2.84,0.05 -2.56,0.71 -5.19,1.11 -7.82,1.43 1.39,-0.61 4.4,-0.96 3.5,-3.15 -1.79,-4.97 -5.24,-9.45 -9.71,-12.32 3.12,-6.41 7.66,-12.46 14.3,-15.5 z"
       id="path35"
       inkscape:connector-curvature="0"
       style="opacity:0.95;fill:#2697ba" />
  </g>
  <g
     id="#94697cc7"
     transform="matrix(2.3145672,0,0,2.3145672,-329.30565,-310.26938)">
    <path
       d="m 162.48,246.65 c -3.98,-13.96 5.55,-29.66 19.44,-33.3 -0.41,6.71 -0.25,13.53 1.75,20 0.52,3.83 3.31,6.69 4.45,10.28 -8.61,0.13 -17.28,0.85 -25.64,3.02 z"
       id="path38"
       inkscape:connector-curvature="0"
       style="opacity:0.77999998;fill:#94697c" />
  </g>
  <g
     id="#94501ec7"
     transform="matrix(2.3145672,0,0,2.3145672,-329.30565,-310.26938)">
    <path
       d="m 318.65,213.21 c 14.09,3.46 23.91,19.26 19.89,33.37 -7.67,-1.85 -15.55,-2.65 -23.42,-2.99 1.27,-2.87 1.72,-5.98 1.97,-9.08 1.97,-6.91 2.87,-14.18 1.56,-21.3 z"
       id="path41"
       inkscape:connector-curvature="0"
       style="opacity:0.77999998;fill:#94501e" />
  </g>
  <g
     id="#1aa3bdf3"
     transform="matrix(2.3145672,0,0,2.3145672,-329.30565,-310.26938)">
    <path
       d="m 248.92,227.24 c 3,3.31 7.4,1.41 10.59,-0.52 0.81,0.77 1.63,1.53 2.46,2.28 -4.09,2.33 -7.58,5.55 -10.2,9.46 -2.42,-2.1 -5.02,-3.98 -7.78,-5.6 1.76,-1.77 3.5,-3.57 4.93,-5.62 z"
       id="path44"
       inkscape:connector-curvature="0"
       style="opacity:0.95;fill:#1aa3bd" />
  </g>
  <g
     id="#1ca4dfff"
     transform="matrix(2.3145672,0,0,2.3145672,-329.30565,-310.26938)">
    <path
       d="m 172.44,250.6 c 4.62,-0.54 9.25,-1.16 13.92,-1.05 -2.25,5.98 -6.02,11.18 -9.26,16.65 -4.67,7.37 -8.85,15.06 -13.77,22.27 -2.1,-4.31 -4.07,-8.68 -6.03,-13.05 4.3,-4.98 7.11,-10.97 10.65,-16.47 1.71,-2.66 3.19,-5.47 4.49,-8.35 z"
       id="path47"
       inkscape:connector-curvature="0"
       style="opacity:1;fill:#1ca4df" />
  </g>
  <g
     id="#31ade3ff"
     transform="matrix(2.3145672,0,0,2.3145672,-329.30565,-310.26938)">
    <path
       d="m 186.36,249.55 c 9.62,-0.15 19.26,1.08 28.53,3.69 -3.76,0.26 -5.14,3.99 -6.83,6.74 -5.91,10.07 -11.93,20.08 -18.01,30.05 -1.27,2.08 -2.25,4.32 -3.13,6.58 3.31,0.25 6.65,0.53 9.89,1.32 -9.67,-0.87 -19.4,-0.93 -29.09,-0.26 -1.42,-3.09 -2.92,-6.14 -4.39,-9.2 4.92,-7.21 9.1,-14.9 13.77,-22.27 3.24,-5.47 7.01,-10.67 9.26,-16.65 z"
       id="path50"
       inkscape:connector-curvature="0"
       style="opacity:1;fill:#31ade3" />
  </g>
  <g
     id="#24a8e1ff"
     transform="matrix(2.3145672,0,0,2.3145672,-329.30565,-310.26938)">
    <path
       d="m 302.51,249.78 c 6.45,-0.12 12.91,-0.44 19.36,-0.01 5.53,11.14 12.71,21.37 18.71,32.25 -2.14,5.32 -4.78,10.46 -7.39,15.57 -0.43,-0.01 -1.28,-0.05 -1.7,-0.06 -7.26,-13.78 -16.07,-26.67 -23.72,-40.23 -1.35,-2.48 -2.51,-5.17 -4.73,-7.02 l -0.53,-0.5 z"
       id="path53"
       inkscape:connector-curvature="0"
       style="opacity:1;fill:#24a8e1" />
  </g>
  <g
     id="#119fddff"
     transform="matrix(2.3145672,0,0,2.3145672,-329.30565,-310.26938)">
    <path
       d="m 321.87,249.77 c 10.38,1.09 20.95,2.97 30.17,8.11 -4.05,7.93 -7.37,16.22 -11.46,24.14 -6,-10.88 -13.18,-21.11 -18.71,-32.25 z"
       id="path56"
       inkscape:connector-curvature="0"
       style="opacity:1;fill:#119fdd" />
  </g>
  <g
     id="#0c9ddcff"
     transform="matrix(2.3145672,0,0,2.3145672,-329.30565,-310.26938)">
    <path
       d="m 148.97,257.85 c 7.24,-3.99 15.34,-6.03 23.47,-7.25 -1.3,2.88 -2.78,5.69 -4.49,8.35 -3.54,5.5 -6.35,11.49 -10.65,16.47 -2.98,-5.76 -5.32,-11.82 -8.33,-17.57 z"
       id="path59"
       inkscape:connector-curvature="0"
       style="opacity:1;fill:#0c9ddc" />
  </g>
  <g
     id="#34afe4ff"
     transform="matrix(2.3145672,0,0,2.3145672,-329.30565,-310.26938)">
    <path
       d="m 292.67,251.6 c 3.42,-0.62 6.86,-1.41 10.37,-1.32 2.22,1.85 3.38,4.54 4.73,7.02 7.65,13.56 16.46,26.45 23.72,40.23 -0.85,-0.04 -2.56,-0.13 -3.41,-0.17 -2.95,-0.17 -5.89,-0.36 -8.84,-0.56 -8.31,-15.38 -18.06,-29.93 -26.57,-45.2 z"
       id="path62"
       inkscape:connector-curvature="0"
       style="opacity:1;fill:#34afe4" />
  </g>
  <g
     id="#47b7e8ff"
     transform="matrix(2.3145672,0,0,2.3145672,-329.30565,-310.26938)">
    <path
       d="m 273.13,258.1 c 6.29,-2.77 12.76,-5.19 19.54,-6.5 8.51,15.27 18.26,29.82 26.57,45.2 2.95,0.2 5.89,0.39 8.84,0.56 -10.33,-0.38 -20.75,-0.2 -30.92,1.84 -7.24,-14.01 -16.32,-27 -23.89,-40.82 l -0.14,-0.28 z"
       id="path65"
       inkscape:connector-curvature="0"
       style="opacity:1;fill:#47b7e8" />
    <path
       d="m 208.06,259.98 c 1.69,-2.75 3.07,-6.48 6.83,-6.74 2.76,0.63 5.37,1.77 8.04,2.71 l -0.11,0.16 c -5.39,7.66 -9.77,15.96 -14.8,23.86 -3.53,6.02 -7.3,11.9 -10.44,18.14 l -0.77,-0.18 c -3.24,-0.79 -6.58,-1.07 -9.89,-1.32 0.88,-2.26 1.86,-4.5 3.13,-6.58 6.08,-9.97 12.1,-19.98 18.01,-30.05 z"
       id="path67"
       inkscape:connector-curvature="0"
       style="opacity:1;fill:#47b7e8" />
  </g>
  <g
     id="#59bfebff"
     transform="matrix(2.3145672,0,0,2.3145672,-329.30565,-310.26938)">
    <path
       d="m 208.02,279.97 c 5.03,-7.9 9.41,-16.2 14.8,-23.86 5.71,2.14 11.15,5.17 15.71,9.25 -6.64,12.72 -15.28,24.32 -21.43,37.3 -6.38,-2.04 -12.91,-3.52 -19.52,-4.55 3.14,-6.24 6.91,-12.12 10.44,-18.14 z"
       id="path70"
       inkscape:connector-curvature="0"
       style="opacity:1;fill:#59bfeb" />
  </g>
  <g
     id="#5cc0ecff"
     transform="matrix(2.3145672,0,0,2.3145672,-329.30565,-310.26938)">
    <path
       d="m 262.71,264.95 c 3.34,-2.45 6.66,-5.04 10.56,-6.57 7.57,13.82 16.65,26.81 23.89,40.82 -4.32,0.85 -8.54,2.11 -12.8,3.19 -1.13,-2.69 -2.35,-5.35 -3.85,-7.85 -5.8,-9.9 -11.65,-19.76 -17.73,-29.48 l -0.07,-0.11 z"
       id="path73"
       inkscape:connector-curvature="0"
       style="opacity:1;fill:#5cc0ec" />
  </g>
  <g
     id="#70c9f0ff"
     transform="matrix(2.3145672,0,0,2.3145672,-329.30565,-310.26938)">
    <path
       d="m 238.53,265.36 c 4.03,3.11 7.18,7.16 9.86,11.44 -0.26,3.61 0.16,7.53 -1.79,10.77 -4.18,7.57 -8.86,14.85 -13.09,22.39 -5.19,-3.02 -10.73,-5.38 -16.41,-7.3 6.15,-12.98 14.79,-24.58 21.43,-37.3 z"
       id="path76"
       inkscape:connector-curvature="0"
       style="opacity:1;fill:#70c9f0" />
  </g>
  <g
     id="#6ec8f0ff"
     transform="matrix(2.3145672,0,0,2.3145672,-329.30565,-310.26938)">
    <path
       d="m 253.07,275.97 c 2.72,-4.05 5.85,-7.9 9.71,-10.91 6.08,9.72 11.93,19.58 17.73,29.48 1.5,2.5 2.72,5.16 3.85,7.85 -4.66,1.9 -9.47,3.49 -13.91,5.91 -5.68,-9.99 -11.58,-19.87 -17.64,-29.63 0.06,-0.67 0.2,-2.02 0.26,-2.7 z"
       id="path79"
       inkscape:connector-curvature="0"
       style="opacity:1;fill:#6ec8f0" />
  </g>
  <g
     id="#3b5d6b70"
     transform="matrix(2.3145672,0,0,2.3145672,-329.30565,-310.26938)">
    <path
       d="m 252.24,277.01 c 0.21,-0.26 0.63,-0.78 0.83,-1.04 -0.06,0.68 -0.2,2.03 -0.26,2.7 -0.53,11.46 -1.04,22.93 -1.41,34.39 -0.3,3.36 -1.19,6.72 -0.39,10.08 l 0.98,0.86 c -1.68,-0.12 -3.19,-0.73 -4.55,-1.81 0.19,-0.25 0.57,-0.75 0.76,-1 0.38,-0.33 1.15,-0.99 1.54,-1.32 -0.04,-2.3 -0.05,-4.59 0.05,-6.88 2.49,-5.28 1.05,-11.33 1.55,-16.94 0.56,-6.34 0.73,-12.69 0.9,-19.04 z"
       id="path82"
       inkscape:connector-curvature="0"
       style="opacity:0.43999999;fill:#3b5d6b" />
  </g>
  <g
     id="#85d2f4ff"
     transform="matrix(2.3145672,0,0,2.3145672,-329.30565,-310.26938)">
    <path
       d="m 248.39,276.8 c 0.35,12.07 1.36,24.11 1.4,36.19 -0.1,2.29 -0.09,4.58 -0.05,6.88 -0.39,0.33 -1.16,0.99 -1.54,1.32 -4.65,-4 -9.27,-8.2 -14.69,-11.23 4.23,-7.54 8.91,-14.82 13.09,-22.39 1.95,-3.24 1.53,-7.16 1.79,-10.77 z"
       id="path85"
       inkscape:connector-curvature="0"
       style="opacity:1;fill:#85d2f4" />
  </g>
  <g
     id="#81d0f3ff"
     transform="matrix(2.3145672,0,0,2.3145672,-329.30565,-310.26938)">
    <path
       d="m 252.81,278.67 c 6.06,9.76 11.96,19.64 17.64,29.63 -7.27,3.82 -13.66,9.04 -19.44,14.84 -0.8,-3.36 0.09,-6.72 0.39,-10.08 0.37,-11.46 0.88,-22.93 1.41,-34.39 z"
       id="path88"
       inkscape:connector-curvature="0"
       style="opacity:1;fill:#81d0f3" />
  </g>
</svg>
