<?xml version="1.0" encoding="UTF-8" ?>
<!DOCTYPE svg PUBLIC "-//W3C//DTD SVG 1.1//EN" "http://www.w3.org/Graphics/SVG/1.1/DTD/svg11.dtd">
<svg width="500pt" height="500pt" viewBox="0 0 500 500" version="1.1" xmlns="http://www.w3.org/2000/svg">
<g id="#69b839ff">
<path fill="#69b839" opacity="1.00" d=" M 256.43 117.57 C 278.98 116.68 301.53 115.61 324.09 115.12 C 321.67 120.20 318.72 125.00 315.77 129.78 C 338.64 146.63 356.28 170.79 364.38 198.11 C 372.22 224.07 371.82 252.49 363.14 278.19 C 354.63 303.39 338.40 326.08 316.82 341.70 C 320.17 337.77 324.01 334.30 327.39 330.39 C 346.28 308.25 356.13 278.72 354.58 249.67 C 352.95 212.40 331.80 176.69 300.04 157.17 C 296.17 164.05 292.21 170.87 288.19 177.67 C 277.82 157.52 267.31 137.44 256.43 117.57 Z" />
</g>
<g id="#0a87c7ff">
<path fill="#0a87c7" opacity="1.00" d=" M 163.94 176.91 C 190.26 151.48 230.14 141.21 265.50 150.67 C 273.62 164.37 280.59 178.71 288.04 192.78 C 292.63 184.40 297.49 176.16 302.36 167.94 C 322.34 182.55 337.29 204.13 343.43 228.16 C 349.14 249.79 347.83 273.19 339.93 294.10 C 330.20 320.09 309.95 341.89 284.82 353.65 C 263.00 364.11 237.62 366.60 214.07 361.26 C 188.06 355.42 164.62 339.38 149.39 317.54 C 136.94 299.63 129.93 277.87 130.07 256.02 C 129.67 226.48 142.33 197.04 163.94 176.91 M 174.35 282.76 C 179.40 282.76 184.46 282.76 189.52 282.75 C 189.59 272.31 189.51 261.87 189.57 251.43 C 193.02 251.58 196.54 251.31 199.91 252.16 C 203.17 253.17 205.46 255.93 207.46 258.54 C 213.23 266.46 218.25 274.90 223.98 282.85 C 229.88 282.70 235.77 282.79 241.67 282.81 C 233.93 271.31 228.53 257.32 216.27 249.70 C 222.08 248.84 228.06 246.52 231.71 241.70 C 238.41 232.93 236.79 218.80 227.92 212.08 C 223.05 208.47 216.77 208.28 210.97 207.96 C 198.79 207.60 186.60 207.92 174.42 207.78 C 174.30 232.78 174.45 257.77 174.35 282.76 M 262.75 236.27 C 262.80 233.66 262.83 231.06 262.85 228.45 C 258.39 228.42 253.92 228.44 249.46 228.52 C 249.59 253.49 249.55 278.46 249.48 303.43 C 254.29 303.40 259.11 303.44 263.93 303.41 C 263.72 294.37 263.92 285.33 263.81 276.29 C 266.90 279.22 270.24 282.11 274.38 283.44 C 278.23 284.70 282.42 284.32 286.27 283.21 C 294.51 280.36 300.44 272.46 301.84 263.98 C 303.14 256.13 302.91 247.73 299.61 240.38 C 296.23 232.84 288.41 227.03 279.96 227.34 C 273.18 227.26 266.72 230.86 262.75 236.27 Z" />
<path fill="#0a87c7" opacity="1.00" d=" M 189.48 220.57 C 197.64 220.63 205.86 220.01 213.98 221.06 C 222.04 222.72 222.50 236.18 214.69 238.55 C 206.42 240.27 197.92 239.51 189.54 239.62 C 189.55 233.27 189.52 226.92 189.48 220.57 Z" />
<path fill="#0a87c7" opacity="1.00" d=" M 271.30 239.46 C 275.07 237.85 279.83 238.28 282.89 241.14 C 286.25 244.08 287.58 248.60 287.72 252.93 C 287.87 257.34 287.88 261.95 286.12 266.09 C 284.31 270.39 279.66 273.51 274.91 272.76 C 268.59 272.16 264.61 265.88 263.96 260.02 C 262.97 252.69 263.60 242.99 271.30 239.46 Z" />
</g>
<g id="#ffffffff">
<path fill="#ffffff" opacity="1.00" d=" M 174.35 282.76 C 174.45 257.77 174.30 232.78 174.42 207.78 C 186.60 207.92 198.79 207.60 210.97 207.96 C 216.77 208.28 223.05 208.47 227.92 212.08 C 236.79 218.80 238.41 232.93 231.71 241.70 C 228.06 246.52 222.08 248.84 216.27 249.70 C 228.53 257.32 233.93 271.31 241.67 282.81 C 235.77 282.79 229.88 282.70 223.98 282.85 C 218.25 274.90 213.23 266.46 207.46 258.54 C 205.46 255.93 203.17 253.17 199.91 252.16 C 196.54 251.31 193.02 251.58 189.57 251.43 C 189.51 261.87 189.59 272.31 189.52 282.75 C 184.46 282.76 179.40 282.76 174.35 282.76 M 189.48 220.57 C 189.52 226.92 189.55 233.27 189.54 239.62 C 197.92 239.51 206.42 240.27 214.69 238.55 C 222.50 236.18 222.04 222.72 213.98 221.06 C 205.86 220.01 197.64 220.63 189.48 220.57 Z" />
<path fill="#ffffff" opacity="1.00" d=" M 262.75 236.27 C 266.72 230.86 273.18 227.26 279.96 227.34 C 288.41 227.03 296.23 232.84 299.61 240.38 C 302.91 247.73 303.14 256.13 301.84 263.98 C 300.44 272.46 294.51 280.36 286.27 283.21 C 282.42 284.32 278.23 284.70 274.38 283.44 C 270.24 282.11 266.90 279.22 263.81 276.29 C 263.92 285.33 263.72 294.37 263.93 303.41 C 259.11 303.44 254.29 303.40 249.48 303.43 C 249.55 278.46 249.59 253.49 249.46 228.52 C 253.92 228.44 258.39 228.42 262.85 228.45 C 262.83 231.06 262.80 233.66 262.75 236.27 M 271.30 239.46 C 263.60 242.99 262.97 252.69 263.96 260.02 C 264.61 265.88 268.59 272.16 274.91 272.76 C 279.66 273.51 284.31 270.39 286.12 266.09 C 287.88 261.95 287.87 257.34 287.72 252.93 C 287.58 248.60 286.25 244.08 282.89 241.14 C 279.83 238.28 275.07 237.85 271.30 239.46 Z" />
</g>
</svg>
