<?xml version="1.0" encoding="UTF-8" ?>
<!DOCTYPE svg PUBLIC "-//W3C//DTD SVG 1.1//EN" "http://www.w3.org/Graphics/SVG/1.1/DTD/svg11.dtd">
<svg width="500pt" height="500pt" viewBox="0 0 500 500" version="1.1" xmlns="http://www.w3.org/2000/svg">
<g id="#3c9775ff">
<path fill="#3c9775" opacity="1.00" d=" M 138.20 151.91 C 138.13 149.24 139.88 145.81 142.97 146.14 C 160.35 146.20 177.74 146.06 195.12 146.20 C 197.39 146.10 199.48 147.30 200.93 148.99 C 203.53 152.09 205.75 155.50 208.41 158.57 C 209.18 159.82 210.76 159.58 212.00 159.66 C 259.34 159.62 306.68 159.67 354.02 159.64 C 356.85 159.86 361.19 161.51 360.70 165.03 C 360.45 180.84 361.28 196.69 360.28 212.49 C 356.79 209.64 353.05 207.10 349.73 204.05 C 349.81 192.81 349.74 181.58 349.78 170.34 C 282.61 170.37 215.44 170.36 148.26 170.33 C 148.26 172.76 148.25 175.19 148.24 177.63 C 144.89 177.76 141.54 177.90 138.19 177.95 C 138.20 169.27 138.13 160.59 138.20 151.91 Z" />
<path fill="#3c9775" opacity="1.00" d=" M 194.45 177.53 C 234.64 177.44 274.83 177.55 315.02 177.47 C 314.56 188.55 316.18 199.57 316.51 210.64 C 316.93 214.93 316.51 219.39 318.04 223.51 C 318.76 224.88 319.58 226.21 320.64 227.35 C 334.09 240.48 347.22 253.94 360.71 267.04 C 360.67 288.51 360.79 309.97 360.66 331.44 C 360.37 327.62 360.09 323.79 360.13 319.95 C 306.65 274.43 253.36 228.66 199.89 183.12 C 197.88 181.46 196.13 179.52 194.45 177.53 Z" />
</g>
<g id="#aeaeaeff">
<path fill="#aeaeae" opacity="1.00" d=" M 148.26 170.33 C 215.44 170.36 282.61 170.37 349.78 170.34 C 349.74 181.58 349.81 192.81 349.73 204.05 C 340.12 196.05 330.17 188.47 320.58 180.46 C 318.94 179.13 317.26 177.55 315.02 177.47 C 274.83 177.55 234.64 177.44 194.45 177.53 C 179.05 177.56 163.64 177.36 148.24 177.63 C 148.25 175.19 148.26 172.76 148.26 170.33 Z" />
</g>
<g id="#43a989ff">
<path fill="#43a989" opacity="1.00" d=" M 138.19 177.95 C 141.54 177.90 144.89 177.76 148.24 177.63 C 163.64 177.36 179.05 177.56 194.45 177.53 C 196.13 179.52 197.88 181.46 199.89 183.12 C 253.36 228.66 306.65 274.43 360.13 319.95 C 360.09 323.79 360.37 327.62 360.66 331.44 C 359.32 332.59 357.96 334.12 356.01 333.88 C 284.98 333.82 213.95 333.90 142.92 333.84 C 140.29 333.60 138.16 330.56 138.16 328.02 C 138.20 278.00 138.13 227.97 138.19 177.95 Z" />
<path fill="#43a989" opacity="1.00" d=" M 315.02 177.47 C 317.26 177.55 318.94 179.13 320.58 180.46 C 330.17 188.47 340.12 196.05 349.73 204.05 C 353.05 207.10 356.79 209.64 360.28 212.49 L 360.86 213.34 C 346.62 216.88 332.35 220.30 318.04 223.51 C 316.51 219.39 316.93 214.93 316.51 210.64 C 316.18 199.57 314.56 188.55 315.02 177.47 Z" />
</g>
<g id="#2f7a5eff">
<path fill="#2f7a5e" opacity="1.00" d=" M 360.86 213.34 L 360.91 213.32 C 360.43 231.22 360.87 249.13 360.71 267.04 C 347.22 253.94 334.09 240.48 320.64 227.35 C 319.58 226.21 318.76 224.88 318.04 223.51 C 332.35 220.30 346.62 216.88 360.86 213.34 Z" />
</g>
</svg>
