<?xml version="1.0" encoding="UTF-8" ?>
<!DOCTYPE svg PUBLIC "-//W3C//DTD SVG 1.1//EN" "http://www.w3.org/Graphics/SVG/1.1/DTD/svg11.dtd">
<svg width="368pt" height="368pt" viewBox="0 0 368 368" version="1.1" xmlns="http://www.w3.org/2000/svg">
<g id="#25c16eff">
<path fill="#25c16e" opacity="1.00" d=" M 134.10 26.02 C 144.55 22.73 155.43 21.42 166.21 19.69 C 175.45 19.10 184.72 19.26 193.98 19.23 C 231.31 19.25 268.64 19.18 305.97 19.26 C 310.67 19.08 314.98 21.08 319.46 22.12 C 320.74 22.80 322.07 23.39 323.41 23.95 C 330.00 28.30 335.92 33.89 339.95 40.72 C 342.68 46.77 344.91 53.30 344.76 60.01 C 344.77 100.02 344.76 140.03 344.76 180.03 C 344.94 195.42 343.07 210.86 338.93 225.68 C 333.98 245.80 324.07 264.37 312.17 281.21 C 309.07 284.48 306.42 288.13 303.62 291.65 C 298.45 296.91 293.32 302.20 287.82 307.11 C 266.20 325.36 240.03 338.56 212.14 343.74 C 206.96 344.89 201.63 345.07 196.45 346.25 C 183.66 346.80 170.62 347.57 158.00 344.93 C 138.17 342.72 119.21 335.56 101.61 326.32 C 98.54 324.16 95.26 322.32 92.07 320.37 C 90.39 319.28 88.70 318.22 87.05 317.12 C 80.95 312.63 74.97 307.93 69.43 302.76 C 63.36 296.68 56.95 290.86 52.23 283.61 C 51.24 282.67 50.25 281.73 49.26 280.79 C 46.04 275.53 42.56 270.43 39.45 265.10 C 25.99 242.42 18.73 216.31 17.37 190.04 C 16.47 168.34 20.04 146.52 27.44 126.11 C 30.18 118.35 34.14 111.10 37.62 103.66 C 41.60 97.61 45.25 91.34 49.25 85.30 C 52.60 82.27 55.06 78.45 57.87 74.94 C 66.75 65.39 76.34 56.47 86.99 48.91 C 87.97 48.18 89.01 47.55 90.10 47.01 C 96.34 42.82 102.79 38.96 109.57 35.71 C 117.47 31.80 125.71 28.70 134.10 26.02 M 154.94 78.90 C 144.42 84.63 135.42 93.91 131.60 105.43 C 130.60 108.21 130.30 111.23 129.04 113.93 C 126.66 115.24 123.52 115.55 121.89 117.97 C 119.78 120.89 120.45 124.70 120.30 128.07 C 120.47 135.01 120.06 141.97 120.51 148.90 C 121.14 154.75 128.35 156.92 133.26 155.28 C 135.23 154.32 135.05 151.81 135.18 149.97 C 135.20 139.28 135.13 128.60 135.18 117.91 C 135.25 109.29 138.55 100.75 144.31 94.33 C 153.19 84.14 166.57 78.17 180.05 78.08 C 194.94 77.42 210.15 83.79 219.76 95.24 C 226.04 102.59 228.51 112.46 228.20 121.99 C 227.90 135.98 228.92 150.03 227.26 163.96 C 227.53 168.12 222.25 168.42 220.73 171.66 C 217.06 177.09 221.52 185.41 228.02 185.48 C 233.24 185.98 238.07 181.25 237.66 176.02 C 237.74 172.37 234.37 170.17 233.16 167.04 C 233.11 163.27 233.97 159.57 234.41 155.84 C 237.62 155.19 241.37 154.06 242.57 150.62 C 243.91 146.23 243.15 141.54 243.33 137.02 C 243.11 131.41 243.90 125.70 242.74 120.17 C 241.79 116.16 237.29 115.48 234.22 113.75 C 232.84 110.53 232.58 106.94 231.22 103.71 C 227.07 92.30 217.60 83.54 206.94 78.16 C 190.82 70.08 170.81 70.31 154.94 78.90 M 162.28 89.31 C 155.39 92.56 150.25 98.88 147.85 106.05 C 144.89 114.07 146.23 122.74 145.87 131.08 C 146.06 133.68 142.99 134.78 142.52 137.15 C 140.99 145.77 144.11 154.69 149.49 161.42 C 153.06 165.67 154.02 171.36 157.23 175.83 C 162.84 184.33 172.41 191.20 182.98 190.58 C 195.32 189.63 205.61 179.99 209.74 168.67 C 211.29 163.42 215.69 159.83 218.03 155.01 C 220.89 149.51 222.09 143.10 221.11 136.96 C 220.90 135.03 219.04 134.04 217.80 132.81 C 217.47 123.67 218.65 114.20 215.50 105.40 C 213.33 98.74 208.52 93.02 202.32 89.77 C 189.97 83.49 174.83 83.66 162.28 89.31 M 210.70 188.20 C 206.57 211.90 198.36 235.80 181.97 253.90 C 178.13 251.04 175.58 246.93 172.93 243.03 C 164.69 230.58 158.89 216.51 155.84 201.90 C 154.84 197.29 153.73 192.70 152.54 188.13 C 146.16 190.96 139.77 193.77 133.33 196.47 C 125.93 199.57 118.21 202.59 112.33 208.27 C 102.11 217.56 96.21 231.25 96.18 245.03 C 96.22 247.39 96.39 250.05 98.14 251.83 C 100.59 254.06 103.95 254.86 107.13 255.43 C 122.64 257.98 138.20 260.23 153.85 261.64 C 178.51 263.87 203.44 263.15 227.90 259.28 C 239.28 257.37 251.02 256.87 261.99 253.03 C 264.27 252.34 266.79 250.73 266.72 248.05 C 267.70 229.06 257.57 209.11 240.06 200.79 C 230.39 196.32 220.51 192.34 210.70 188.20 M 173.86 201.11 C 173.62 205.24 174.63 209.37 175.76 213.31 C 179.25 214.82 183.85 214.54 187.47 213.46 C 189.03 209.52 189.48 205.24 189.98 201.07 C 184.62 200.77 179.21 200.52 173.86 201.11 M 176.50 218.50 C 175.15 222.50 173.96 226.70 173.74 230.92 C 176.16 236.40 178.94 241.74 182.00 246.90 C 184.99 241.37 188.39 235.95 190.63 230.07 C 189.86 226.19 189.51 221.98 187.66 218.45 C 184.15 217.38 180.02 217.41 176.50 218.50 Z" />
<path fill="#25c16e" opacity="1.00" d=" M 211.54 227.55 C 215.45 223.07 220.50 219.31 226.14 217.36 C 232.35 218.46 237.18 223.35 241.72 227.46 C 241.72 233.96 239.66 240.60 235.85 245.85 C 229.78 247.21 223.19 247.22 217.13 245.82 C 213.56 240.58 211.05 233.95 211.54 227.55 M 226.18 218.17 C 220.80 220.16 215.72 223.66 212.18 228.19 C 211.83 234.26 214.71 239.83 217.10 245.23 C 223.30 246.51 229.64 246.47 235.86 245.26 C 238.28 239.86 241.25 234.27 240.84 228.18 C 237.04 223.71 231.96 219.49 226.18 218.17 Z" />
<path fill="#25c16e" opacity="1.00" d=" M 215.97 229.41 C 217.46 224.85 222.24 221.58 226.98 221.65 C 230.94 222.59 236.29 224.48 237.02 229.06 C 235.81 228.78 234.62 228.36 233.35 228.41 C 234.40 231.52 236.53 235.81 233.51 238.51 C 230.89 240.39 227.32 242.37 224.07 240.95 C 221.91 240.08 219.29 239.15 218.35 236.83 C 216.97 231.56 220.40 225.68 225.84 224.66 C 224.05 226.76 222.23 228.84 220.64 231.10 C 221.07 231.67 221.93 232.80 222.36 233.37 C 221.43 233.35 219.57 233.31 218.64 233.29 C 221.21 234.16 223.79 235.05 226.15 236.42 C 228.88 235.27 231.69 234.31 234.44 233.19 C 233.67 233.27 232.15 233.44 231.39 233.52 C 231.39 231.99 231.57 230.43 231.20 228.93 C 229.92 227.48 228.38 226.29 226.97 224.99 C 228.88 225.23 230.76 225.79 231.96 227.45 C 232.63 226.82 233.30 226.19 233.97 225.55 C 230.49 222.36 225.51 223.38 221.24 223.77 C 219.79 225.90 218.17 227.99 215.97 229.41 Z" />
<path fill="#25c16e" opacity="1.00" d=" M 226.43 227.65 C 227.34 229.55 227.67 231.63 227.99 233.69 C 226.73 233.65 225.47 233.61 224.22 233.57 C 224.91 231.58 225.62 229.60 226.43 227.65 M 225.95 231.27 C 224.26 234.16 229.30 231.55 225.95 231.27 Z" />
<path fill="#25c16e" opacity="1.00" d=" M 232.79 240.01 C 234.40 239.48 234.96 240.03 234.47 241.66 C 232.84 242.19 232.28 241.64 232.79 240.01 Z" />
<path fill="#25c16e" opacity="1.00" d=" M 219.33 241.14 C 219.91 241.67 219.91 241.67 219.33 241.14 Z" />
<path fill="#25c16e" opacity="1.00" d=" M 221.02 241.85 C 222.43 241.44 222.87 241.94 222.34 243.36 C 220.93 243.76 220.49 243.25 221.02 241.85 Z" />
<path fill="#25c16e" opacity="1.00" d=" M 231.12 243.80 C 229.83 243.06 229.83 242.36 231.10 241.70 C 232.37 242.45 232.38 243.15 231.12 243.80 Z" />
<path fill="#25c16e" opacity="1.00" d=" M 224.18 242.85 C 225.86 242.39 226.43 242.95 225.90 244.52 C 224.23 244.98 223.66 244.42 224.18 242.85 Z" />
<path fill="#25c16e" opacity="1.00" d=" M 227.59 242.95 C 228.99 242.53 229.46 243.02 228.98 244.43 C 227.56 244.84 227.10 244.35 227.59 242.95 Z" />
</g>
<g id="#fffdffff">
<path fill="#fffdff" opacity="1.00" d=" M 154.94 78.90 C 170.81 70.31 190.82 70.08 206.94 78.16 C 217.60 83.54 227.07 92.30 231.22 103.71 C 232.58 106.94 232.84 110.53 234.22 113.75 C 237.29 115.48 241.79 116.16 242.74 120.17 C 243.90 125.70 243.11 131.41 243.33 137.02 C 243.15 141.54 243.91 146.23 242.57 150.62 C 241.37 154.06 237.62 155.19 234.41 155.84 C 233.97 159.57 233.11 163.27 233.16 167.04 C 234.37 170.17 237.74 172.37 237.66 176.02 C 238.07 181.25 233.24 185.98 228.02 185.48 C 221.52 185.41 217.06 177.09 220.73 171.66 C 222.25 168.42 227.53 168.12 227.26 163.96 C 228.92 150.03 227.90 135.98 228.20 121.99 C 228.51 112.46 226.04 102.59 219.76 95.24 C 210.15 83.79 194.94 77.42 180.05 78.08 C 166.57 78.17 153.19 84.14 144.31 94.33 C 138.55 100.75 135.25 109.29 135.18 117.91 C 135.13 128.60 135.20 139.28 135.18 149.97 C 135.05 151.81 135.23 154.32 133.26 155.28 C 128.35 156.92 121.14 154.75 120.51 148.90 C 120.06 141.97 120.47 135.01 120.30 128.07 C 120.45 124.70 119.78 120.89 121.89 117.97 C 123.52 115.55 126.66 115.24 129.04 113.93 C 130.30 111.23 130.60 108.21 131.60 105.43 C 135.42 93.91 144.42 84.63 154.94 78.90 Z" />
<path fill="#fffdff" opacity="1.00" d=" M 162.28 89.31 C 174.83 83.66 189.97 83.49 202.32 89.77 C 208.52 93.02 213.33 98.74 215.50 105.40 C 218.65 114.20 217.47 123.67 217.80 132.81 C 219.04 134.04 220.90 135.03 221.11 136.96 C 222.09 143.10 220.89 149.51 218.03 155.01 C 215.69 159.83 211.29 163.42 209.74 168.67 C 205.61 179.99 195.32 189.63 182.98 190.58 C 172.41 191.20 162.84 184.33 157.23 175.83 C 154.02 171.36 153.06 165.67 149.49 161.42 C 144.11 154.69 140.99 145.77 142.52 137.15 C 142.99 134.78 146.06 133.68 145.87 131.08 C 146.23 122.74 144.89 114.07 147.85 106.05 C 150.25 98.88 155.39 92.56 162.28 89.31 Z" />
<path fill="#fffdff" opacity="1.00" d=" M 210.70 188.20 C 220.51 192.34 230.39 196.32 240.06 200.79 C 257.57 209.11 267.70 229.06 266.72 248.05 C 266.79 250.73 264.27 252.34 261.99 253.03 C 251.02 256.87 239.28 257.37 227.90 259.28 C 203.44 263.15 178.51 263.87 153.85 261.64 C 138.20 260.23 122.64 257.98 107.13 255.43 C 103.95 254.86 100.59 254.06 98.14 251.83 C 96.39 250.05 96.22 247.39 96.18 245.03 C 96.21 231.25 102.11 217.56 112.33 208.27 C 118.21 202.59 125.93 199.57 133.33 196.47 C 139.77 193.77 146.16 190.96 152.54 188.13 C 153.73 192.70 154.84 197.29 155.84 201.90 C 158.89 216.51 164.69 230.58 172.93 243.03 C 175.58 246.93 178.13 251.04 181.97 253.90 C 198.36 235.80 206.57 211.90 210.70 188.20 M 211.54 227.55 C 211.05 233.95 213.56 240.58 217.13 245.82 C 223.19 247.22 229.78 247.21 235.85 245.85 C 239.66 240.60 241.72 233.96 241.72 227.46 C 237.18 223.35 232.35 218.46 226.14 217.36 C 220.50 219.31 215.45 223.07 211.54 227.55 Z" />
<path fill="#fffdff" opacity="1.00" d=" M 173.86 201.11 C 179.21 200.52 184.62 200.77 189.98 201.07 C 189.48 205.24 189.03 209.52 187.47 213.46 C 183.85 214.54 179.25 214.82 175.76 213.31 C 174.63 209.37 173.62 205.24 173.86 201.11 Z" />
<path fill="#fffdff" opacity="1.00" d=" M 176.50 218.50 C 180.02 217.41 184.15 217.38 187.66 218.45 C 189.51 221.98 189.86 226.19 190.63 230.07 C 188.39 235.95 184.99 241.37 182.00 246.90 C 178.94 241.74 176.16 236.40 173.74 230.92 C 173.96 226.70 175.15 222.50 176.50 218.50 Z" />
<path fill="#fffdff" opacity="1.00" d=" M 226.18 218.17 C 231.96 219.49 237.04 223.71 240.84 228.18 C 241.25 234.27 238.28 239.86 235.86 245.26 C 229.64 246.47 223.30 246.51 217.10 245.23 C 214.71 239.83 211.83 234.26 212.18 228.19 C 215.72 223.66 220.80 220.16 226.18 218.17 M 215.97 229.41 C 218.17 227.99 219.79 225.90 221.24 223.77 C 225.51 223.38 230.49 222.36 233.97 225.55 C 233.30 226.19 232.63 226.82 231.96 227.45 C 230.76 225.79 228.88 225.23 226.97 224.99 C 228.38 226.29 229.92 227.48 231.20 228.93 C 231.57 230.43 231.39 231.99 231.39 233.52 C 232.15 233.44 233.67 233.27 234.44 233.19 C 231.69 234.31 228.88 235.27 226.15 236.42 C 223.79 235.05 221.21 234.16 218.64 233.29 C 219.57 233.31 221.43 233.35 222.36 233.37 C 221.93 232.80 221.07 231.67 220.64 231.10 C 222.23 228.84 224.05 226.76 225.84 224.66 C 220.40 225.68 216.97 231.56 218.35 236.83 C 219.29 239.15 221.91 240.08 224.07 240.95 C 227.32 242.37 230.89 240.39 233.51 238.51 C 236.53 235.81 234.40 231.52 233.35 228.41 C 234.62 228.36 235.81 228.78 237.02 229.06 C 236.29 224.48 230.94 222.59 226.98 221.65 C 222.24 221.58 217.46 224.85 215.97 229.41 M 226.43 227.65 C 225.62 229.60 224.91 231.58 224.22 233.57 C 225.47 233.61 226.73 233.65 227.99 233.69 C 227.67 231.63 227.34 229.55 226.43 227.65 M 232.79 240.01 C 232.28 241.64 232.84 242.19 234.47 241.66 C 234.96 240.03 234.40 239.48 232.79 240.01 M 219.33 241.14 C 219.91 241.67 219.91 241.67 219.33 241.14 M 221.02 241.85 C 220.49 243.25 220.93 243.76 222.34 243.36 C 222.87 241.94 222.43 241.44 221.02 241.85 M 231.12 243.80 C 232.38 243.15 232.37 242.45 231.10 241.70 C 229.83 242.36 229.83 243.06 231.12 243.80 M 224.18 242.85 C 223.66 244.42 224.23 244.98 225.90 244.52 C 226.43 242.95 225.86 242.39 224.18 242.85 M 227.59 242.95 C 227.10 244.35 227.56 244.84 228.98 244.43 C 229.46 243.02 228.99 242.53 227.59 242.95 Z" />
<path fill="#fffdff" opacity="1.00" d=" M 225.95 231.27 C 229.30 231.55 224.26 234.16 225.95 231.27 Z" />
</g>
</svg>
